<svg width="293" height="67" viewBox="0 0 293 67" fill="none" xmlns="http://www.w3.org/2000/svg">
<rect width="293" height="67" rx="17" fill="black"/>
<path d="M65.0625 33.5664C65.0625 35.5169 64.7253 37.2305 64.0508 38.707C63.3763 40.1745 62.4102 41.3047 61.1523 42.0977C59.9036 42.8815 58.4635 43.2734 56.832 43.2734C55.2188 43.2734 53.7786 42.8815 52.5117 42.0977C51.2539 41.3047 50.2786 40.179 49.5859 38.7207C48.9023 37.2624 48.556 35.5807 48.5469 33.6758V32.5547C48.5469 30.6133 48.8887 28.8997 49.5723 27.4141C50.265 25.9284 51.2357 24.7936 52.4844 24.0098C53.7422 23.2168 55.1823 22.8203 56.8047 22.8203C58.4271 22.8203 59.8626 23.2122 61.1113 23.9961C62.3691 24.7708 63.3398 25.8919 64.0234 27.3594C64.707 28.8177 65.0534 30.5176 65.0625 32.459V33.5664ZM61.6035 32.5273C61.6035 30.3216 61.1842 28.6309 60.3457 27.4551C59.5163 26.2793 58.3359 25.6914 56.8047 25.6914C55.3099 25.6914 54.1387 26.2793 53.291 27.4551C52.4525 28.6217 52.0241 30.276 52.0059 32.418V33.5664C52.0059 35.7539 52.4297 37.4447 53.2773 38.6387C54.1341 39.8327 55.319 40.4297 56.832 40.4297C58.3633 40.4297 59.5391 39.8464 60.3594 38.6797C61.1888 37.513 61.6035 35.8086 61.6035 33.5664V32.5273ZM81.7148 25.8828H75.5078V43H72.0762V25.8828H65.9238V23.0938H81.7148V25.8828ZM90.2324 34.4688H87.8809V43H84.4355V23.0938H87.8809V31.4609H89.7812L95.6328 23.0938H99.8711L93.0352 32.623L100.473 43H96.3164L90.2324 34.4688ZM105.846 35.6035V43H102.387V23.0938H110.002C112.226 23.0938 113.99 23.6725 115.293 24.8301C116.605 25.9876 117.262 27.5189 117.262 29.4238C117.262 31.3743 116.619 32.8919 115.334 33.9766C114.058 35.0612 112.267 35.6035 109.961 35.6035H105.846ZM105.846 32.8281H110.002C111.232 32.8281 112.171 32.541 112.818 31.9668C113.465 31.3835 113.789 30.5449 113.789 29.4512C113.789 28.3757 113.461 27.5189 112.805 26.8809C112.148 26.2337 111.246 25.901 110.098 25.8828H105.846V32.8281ZM123.852 30.709H127.926C129.384 30.709 130.656 30.9596 131.74 31.4609C132.825 31.9622 133.65 32.6732 134.215 33.5938C134.78 34.5143 135.062 35.5807 135.062 36.793C135.062 38.6523 134.429 40.1471 133.162 41.2773C131.904 42.4076 130.186 42.9818 128.008 43H120.393V23.0938H123.852V30.709ZM140.477 43H137.031V23.0938H140.477V43ZM123.852 33.4844V40.2383H127.912C129.079 40.2383 129.986 39.9238 130.633 39.2949C131.289 38.6569 131.617 37.8138 131.617 36.7656C131.617 35.763 131.298 34.9701 130.66 34.3867C130.022 33.8034 129.138 33.5026 128.008 33.4844H123.852ZM158.688 25.8828H152.48V43H149.049V25.8828H142.896V23.0938H158.688V25.8828ZM164.936 30.709H169.01C170.468 30.709 171.74 30.9596 172.824 31.4609C173.909 31.9622 174.734 32.6732 175.299 33.5938C175.864 34.5143 176.146 35.5807 176.146 36.793C176.146 38.6523 175.513 40.1471 174.246 41.2773C172.988 42.4076 171.27 42.9818 169.092 43H161.477V23.0938H164.936V30.709ZM164.936 33.4844V40.2383H168.996C170.163 40.2383 171.07 39.9238 171.717 39.2949C172.373 38.6569 172.701 37.8138 172.701 36.7656C172.701 35.763 172.382 34.9701 171.744 34.3867C171.106 33.8034 170.222 33.5026 169.092 33.4844H164.936ZM186.113 43V23.0938H192.936C195.187 23.0938 196.9 23.5449 198.076 24.4473C199.252 25.3496 199.84 26.694 199.84 28.4805C199.84 29.3919 199.594 30.2122 199.102 30.9414C198.609 31.6706 197.889 32.2357 196.941 32.6367C198.017 32.9284 198.846 33.4798 199.43 34.291C200.022 35.0931 200.318 36.0592 200.318 37.1895C200.318 39.0579 199.717 40.4935 198.514 41.4961C197.32 42.4987 195.606 43 193.373 43H186.113ZM189.572 34.0176V40.2383H193.414C194.499 40.2383 195.346 39.9694 195.957 39.4316C196.568 38.8939 196.873 38.1465 196.873 37.1895C196.873 35.1204 195.816 34.0632 193.701 34.0176H189.572ZM189.572 31.4746H192.963C194.038 31.4746 194.877 31.2331 195.479 30.75C196.089 30.2578 196.395 29.5651 196.395 28.6719C196.395 27.6875 196.112 26.9766 195.547 26.5391C194.991 26.1016 194.12 25.8828 192.936 25.8828H189.572V31.4746ZM221.893 38.3652H214.182L212.568 43H208.973L216.492 23.0938H219.596L227.129 43H223.52L221.893 38.3652ZM215.152 35.5762H220.922L218.037 27.3184L215.152 35.5762ZM236.713 35.3301H232.857V43H229.398V23.0938H236.398C238.695 23.0938 240.468 23.6087 241.717 24.6387C242.965 25.6686 243.59 27.1589 243.59 29.1094C243.59 30.4401 243.266 31.5566 242.619 32.459C241.981 33.3522 241.088 34.0404 239.939 34.5234L244.41 42.8223V43H240.705L236.713 35.3301ZM232.857 32.5547H236.412C237.579 32.5547 238.49 32.263 239.146 31.6797C239.803 31.0872 240.131 30.2806 240.131 29.2598C240.131 28.1934 239.826 27.3685 239.215 26.7852C238.613 26.2018 237.711 25.901 236.508 25.8828H232.857V32.5547Z" fill="white"/>
</svg>
